<svg xmlns="http://www.w3.org/2000/svg" xmlns:xlink="http://www.w3.org/1999/xlink" width="500" zoomAndPan="magnify" viewBox="0 0 375 374.999991" height="500" preserveAspectRatio="xMidYMid meet" version="1.0"><defs><filter x="0%" y="0%" width="100%" height="100%" id="876b0054e2"><feColorMatrix values="0 0 0 0 1 0 0 0 0 1 0 0 0 0 1 0 0 0 1 0" color-interpolation-filters="sRGB"/></filter><g/><clipPath id="c20d5852e5"><path d="M 0 0 L 375 0 L 375 375 L 0 375 Z M 0 0 " clip-rule="nonzero"/></clipPath><clipPath id="3dbdaa29a9"><path d="M -205.21875 -81.804688 L 381.058594 -146.644531 L 456.597656 536.34375 L -129.679688 601.183594 Z M -205.21875 -81.804688 " clip-rule="nonzero"/></clipPath><clipPath id="27900690bd"><path d="M 0 0 L 375 0 L 375 375 L 0 375 Z M 0 0 " clip-rule="nonzero"/></clipPath><clipPath id="1211eaf074"><path d="M -205.21875 -81.804688 L 381.058594 -146.644531 L 456.597656 536.34375 L -129.679688 601.183594 Z M -205.21875 -81.804688 " clip-rule="nonzero"/></clipPath><clipPath id="121725120b"><path d="M 0 0 L 375 0 L 375 375 L 0 375 Z M 0 0 " clip-rule="nonzero"/></clipPath><clipPath id="9fee4d9c5b"><path d="M -205.21875 -81.804688 L 381.058594 -146.644531 L 456.597656 536.34375 L -129.679688 601.183594 Z M -205.21875 -81.804688 " clip-rule="nonzero"/></clipPath><clipPath id="0e027798dd"><path d="M -205.21875 -81.804688 L 380.558594 -146.589844 L 456.097656 536.398438 L -129.679688 601.183594 Z M -205.21875 -81.804688 " clip-rule="nonzero"/></clipPath><clipPath id="ff3b2e4b0b"><path d="M -205.773438 -86.820312 L 380.003906 -151.605469 L 456.652344 541.414062 L -129.125 606.199219 Z M -205.773438 -86.820312 " clip-rule="nonzero"/></clipPath><clipPath id="e50f73f9ec"><path d="M -205.773438 -86.816406 L 380.003906 -151.605469 L 456.652344 541.414062 L -129.125 606.199219 Z M -205.773438 -86.816406 " clip-rule="nonzero"/></clipPath><linearGradient x1="-199.564506" gradientTransform="matrix(0.501041, -0.0554143, 0.0554538, 0.501398, 75.579888, 143.232221)" y1="176.5" x2="621.609491" gradientUnits="userSpaceOnUse" y2="176.5" id="cc6fae791e"><stop stop-opacity="1" stop-color="rgb(100%, 87.059021%, 34.899902%)" offset="0"/><stop stop-opacity="1" stop-color="rgb(100%, 87.059021%, 34.899902%)" offset="0.125"/><stop stop-opacity="1" stop-color="rgb(100%, 87.059021%, 34.899902%)" offset="0.1875"/><stop stop-opacity="1" stop-color="rgb(100%, 87.059021%, 34.899902%)" offset="0.21875"/><stop stop-opacity="1" stop-color="rgb(100%, 87.059021%, 34.899902%)" offset="0.234375"/><stop stop-opacity="1" stop-color="rgb(100%, 87.059021%, 34.899902%)" offset="0.242188"/><stop stop-opacity="1" stop-color="rgb(100%, 86.517334%, 34.814453%)" offset="0.246094"/><stop stop-opacity="1" stop-color="rgb(100%, 85.977173%, 34.73053%)" offset="0.25"/><stop stop-opacity="1" stop-color="rgb(100%, 85.371399%, 34.635925%)" offset="0.253906"/><stop stop-opacity="1" stop-color="rgb(100%, 84.765625%, 34.542847%)" offset="0.257813"/><stop stop-opacity="1" stop-color="rgb(100%, 84.159851%, 34.448242%)" offset="0.261719"/><stop stop-opacity="1" stop-color="rgb(100%, 83.555603%, 34.353638%)" offset="0.265625"/><stop stop-opacity="1" stop-color="rgb(100%, 82.949829%, 34.259033%)" offset="0.269531"/><stop stop-opacity="1" stop-color="rgb(100%, 82.344055%, 34.165955%)" offset="0.273438"/><stop stop-opacity="1" stop-color="rgb(100%, 81.738281%, 34.07135%)" offset="0.277344"/><stop stop-opacity="1" stop-color="rgb(100%, 81.132507%, 33.976746%)" offset="0.28125"/><stop stop-opacity="1" stop-color="rgb(100%, 80.526733%, 33.882141%)" offset="0.285156"/><stop stop-opacity="1" stop-color="rgb(100%, 79.920959%, 33.789062%)" offset="0.289062"/><stop stop-opacity="1" stop-color="rgb(100%, 79.315186%, 33.694458%)" offset="0.292969"/><stop stop-opacity="1" stop-color="rgb(100%, 78.709412%, 33.599854%)" offset="0.296875"/><stop stop-opacity="1" stop-color="rgb(100%, 78.103638%, 33.505249%)" offset="0.300781"/><stop stop-opacity="1" stop-color="rgb(100%, 77.49939%, 33.410645%)" offset="0.304688"/><stop stop-opacity="1" stop-color="rgb(100%, 76.893616%, 33.31604%)" offset="0.308594"/><stop stop-opacity="1" stop-color="rgb(100%, 76.287842%, 33.222961%)" offset="0.3125"/><stop stop-opacity="1" stop-color="rgb(100%, 75.682068%, 33.128357%)" offset="0.316406"/><stop stop-opacity="1" stop-color="rgb(100%, 75.076294%, 33.033752%)" offset="0.320313"/><stop stop-opacity="1" stop-color="rgb(100%, 74.47052%, 32.939148%)" offset="0.324219"/><stop stop-opacity="1" stop-color="rgb(100%, 73.864746%, 32.846069%)" offset="0.328125"/><stop stop-opacity="1" stop-color="rgb(100%, 73.258972%, 32.751465%)" offset="0.332031"/><stop stop-opacity="1" stop-color="rgb(100%, 72.653198%, 32.65686%)" offset="0.335938"/><stop stop-opacity="1" stop-color="rgb(100%, 72.047424%, 32.562256%)" offset="0.339844"/><stop stop-opacity="1" stop-color="rgb(100%, 71.44165%, 32.469177%)" offset="0.34375"/><stop stop-opacity="1" stop-color="rgb(100%, 70.835876%, 32.374573%)" offset="0.347656"/><stop stop-opacity="1" stop-color="rgb(100%, 70.231628%, 32.279968%)" offset="0.351563"/><stop stop-opacity="1" stop-color="rgb(100%, 69.625854%, 32.185364%)" offset="0.355469"/><stop stop-opacity="1" stop-color="rgb(100%, 69.020081%, 32.092285%)" offset="0.359375"/><stop stop-opacity="1" stop-color="rgb(100%, 68.414307%, 31.997681%)" offset="0.363281"/><stop stop-opacity="1" stop-color="rgb(100%, 67.808533%, 31.903076%)" offset="0.367188"/><stop stop-opacity="1" stop-color="rgb(100%, 67.202759%, 31.808472%)" offset="0.371094"/><stop stop-opacity="1" stop-color="rgb(100%, 66.596985%, 31.715393%)" offset="0.375"/><stop stop-opacity="1" stop-color="rgb(100%, 65.991211%, 31.620789%)" offset="0.378906"/><stop stop-opacity="1" stop-color="rgb(100%, 65.385437%, 31.526184%)" offset="0.382813"/><stop stop-opacity="1" stop-color="rgb(100%, 64.779663%, 31.43158%)" offset="0.386719"/><stop stop-opacity="1" stop-color="rgb(100%, 64.175415%, 31.338501%)" offset="0.390625"/><stop stop-opacity="1" stop-color="rgb(100%, 63.569641%, 31.243896%)" offset="0.394531"/><stop stop-opacity="1" stop-color="rgb(100%, 62.963867%, 31.149292%)" offset="0.398438"/><stop stop-opacity="1" stop-color="rgb(100%, 62.358093%, 31.054688%)" offset="0.402344"/><stop stop-opacity="1" stop-color="rgb(100%, 61.752319%, 30.960083%)" offset="0.40625"/><stop stop-opacity="1" stop-color="rgb(100%, 61.146545%, 30.865479%)" offset="0.410156"/><stop stop-opacity="1" stop-color="rgb(100%, 60.540771%, 30.7724%)" offset="0.414063"/><stop stop-opacity="1" stop-color="rgb(100%, 59.934998%, 30.677795%)" offset="0.417969"/><stop stop-opacity="1" stop-color="rgb(100%, 59.329224%, 30.583191%)" offset="0.421875"/><stop stop-opacity="1" stop-color="rgb(100%, 58.72345%, 30.488586%)" offset="0.425781"/><stop stop-opacity="1" stop-color="rgb(100%, 58.117676%, 30.395508%)" offset="0.429688"/><stop stop-opacity="1" stop-color="rgb(100%, 57.511902%, 30.300903%)" offset="0.433594"/><stop stop-opacity="1" stop-color="rgb(100%, 56.907654%, 30.206299%)" offset="0.4375"/><stop stop-opacity="1" stop-color="rgb(100%, 56.88324%, 30.201721%)" offset="0.5"/><stop stop-opacity="1" stop-color="rgb(100%, 56.858826%, 30.198669%)" offset="1"/></linearGradient><clipPath id="4b27c697b7"><rect x="0" width="375" y="0" height="375"/></clipPath><clipPath id="d62417fe5e"><path d="M 0 0 L 375 0 L 375 375 L 0 375 Z M 0 0 " clip-rule="nonzero"/></clipPath><clipPath id="1b2bc302b5"><path d="M -205.21875 -81.804688 L 381.058594 -146.644531 L 456.597656 536.34375 L -129.679688 601.183594 Z M -205.21875 -81.804688 " clip-rule="nonzero"/></clipPath><clipPath id="8271f9aac7"><path d="M 86 185 L 164 185 L 164 257 L 86 257 Z M 86 185 " clip-rule="nonzero"/></clipPath><clipPath id="61ee0b296d"><path d="M -205.21875 -81.804688 L 381.058594 -146.644531 L 456.597656 536.34375 L -129.679688 601.183594 Z M -205.21875 -81.804688 " clip-rule="nonzero"/></clipPath><clipPath id="8f7a719e16"><rect x="0" width="375" y="0" height="375"/></clipPath><clipPath id="aaf388057e"><rect x="0" width="375" y="0" height="375"/></clipPath><mask id="c4b0fde100"><g filter="url(#876b0054e2)"><g transform="matrix(1, 0, 0, 1, 0, 0)"><g clip-path="url(#aaf388057e)"><g clip-path="url(#d62417fe5e)"><g clip-path="url(#1b2bc302b5)"><g transform="matrix(1, 0, 0, 1, 0, 0)"><g clip-path="url(#8f7a719e16)"><g clip-path="url(#8271f9aac7)"><g clip-path="url(#61ee0b296d)"><g fill="#000000" fill-opacity="1"><g transform="translate(88.234609, 255.50551)"><g><path d="M 61.28125 -66.15625 L 63.078125 -48.703125 L 65.6875 -25.1875 C 65.945312 -22.820312 66.515625 -21.132812 67.390625 -20.125 C 68.265625 -19.113281 69.210938 -18.445312 70.234375 -18.125 C 71.253906 -17.8125 72.160156 -17.503906 72.953125 -17.203125 C 73.753906 -16.910156 74.207031 -16.300781 74.3125 -15.375 C 74.457031 -14.03125 73.382812 -12.507812 71.09375 -10.8125 C 69.425781 -9.6875 67.359375 -8.515625 64.890625 -7.296875 C 62.429688 -6.085938 60.359375 -5.390625 58.671875 -5.203125 C 57.066406 -5.023438 55.84375 -5.488281 55 -6.59375 C 54.15625 -7.695312 53.515625 -9.414062 53.078125 -11.75 L 52.484375 -15.90625 C 50.285156 -12 47.351562 -8.859375 43.6875 -6.484375 C 40.019531 -4.117188 36.457031 -2.75 33 -2.375 C 26.519531 -1.65625 21.125 -3.191406 16.8125 -6.984375 C 12.507812 -10.773438 9.894531 -16.882812 8.96875 -25.3125 L 6.9375 -42.484375 C 6.65625 -45.003906 6.148438 -46.84375 5.421875 -48 C 4.703125 -49.164062 3.90625 -50.019531 3.03125 -50.5625 C 2.164062 -51.101562 1.390625 -51.570312 0.703125 -51.96875 C 0.0234375 -52.363281 -0.363281 -53.0625 -0.46875 -54.0625 C -0.550781 -54.820312 -0.367188 -55.484375 0.078125 -56.046875 C 0.523438 -56.609375 1.46875 -57.3125 2.90625 -58.15625 C 5.46875 -59.71875 8.128906 -61.117188 10.890625 -62.359375 C 13.648438 -63.609375 15.492188 -64.332031 16.421875 -64.53125 C 18.265625 -64.8125 19.3125 -63.8125 19.5625 -61.53125 L 21.359375 -44.078125 L 23.140625 -28.015625 C 23.710938 -22.785156 25.054688 -18.691406 27.171875 -15.734375 C 29.296875 -12.773438 32.503906 -11.578125 36.796875 -12.140625 C 39.316406 -12.492188 41.691406 -13.582031 43.921875 -15.40625 C 46.148438 -17.238281 47.882812 -19.65625 49.125 -22.65625 C 50.375 -25.65625 50.785156 -29.046875 50.359375 -32.828125 L 48.78125 -47.125 C 48.5 -49.644531 47.972656 -51.476562 47.203125 -52.625 C 46.441406 -53.78125 45.625 -54.628906 44.75 -55.171875 C 43.882812 -55.710938 43.109375 -56.179688 42.421875 -56.578125 C 41.742188 -56.984375 41.351562 -57.6875 41.25 -58.6875 C 41.164062 -59.445312 41.347656 -60.109375 41.796875 -60.671875 C 42.242188 -61.234375 43.1875 -61.9375 44.625 -62.78125 C 47.175781 -64.332031 49.832031 -65.726562 52.59375 -66.96875 C 55.363281 -68.21875 57.210938 -68.941406 58.140625 -69.140625 C 59.984375 -69.429688 61.03125 -68.4375 61.28125 -66.15625 Z M 61.28125 -66.15625 "/></g></g></g></g></g></g></g></g></g></g></g></g></mask><clipPath id="fef1244267"><path d="M 0 0 L 375 0 L 375 375 L 0 375 Z M 0 0 " clip-rule="nonzero"/></clipPath><clipPath id="cca0803e93"><path d="M -205.21875 -81.804688 L 381.058594 -146.644531 L 456.597656 536.34375 L -129.679688 601.183594 Z M -205.21875 -81.804688 " clip-rule="nonzero"/></clipPath><clipPath id="cd3ad5949d"><path d="M -205.21875 -81.804688 L 380.558594 -146.589844 L 456.097656 536.398438 L -129.679688 601.183594 Z M -205.21875 -81.804688 " clip-rule="nonzero"/></clipPath><clipPath id="a5502c2a73"><path d="M -205.773438 -86.820312 L 380.003906 -151.605469 L 456.652344 541.414062 L -129.125 606.199219 Z M -205.773438 -86.820312 " clip-rule="nonzero"/></clipPath><clipPath id="3dba0afd2c"><path d="M -205.773438 -86.816406 L 380.003906 -151.605469 L 456.652344 541.414062 L -129.125 606.199219 Z M -205.773438 -86.816406 " clip-rule="nonzero"/></clipPath><clipPath id="afe5d7cdcb"><rect x="0" width="375" y="0" height="375"/></clipPath><clipPath id="188722ef92"><rect x="0" width="375" y="0" height="375"/></clipPath><clipPath id="3bff134dca"><rect x="0" width="375" y="0" height="375"/></clipPath><clipPath id="cc18d1bfa9"><path d="M 0 0 L 375 0 L 375 375 L 0 375 Z M 0 0 " clip-rule="nonzero"/></clipPath><clipPath id="ebb3d2f7ea"><path d="M -114.734375 -407.203125 L 727.320312 -251.386719 L 542.804688 745.761719 L -299.25 589.945312 Z M -114.734375 -407.203125 " clip-rule="nonzero"/></clipPath><clipPath id="3b2fce3ff8"><path d="M 0 0 L 375 0 L 375 375 L 0 375 Z M 0 0 " clip-rule="nonzero"/></clipPath><clipPath id="9c513902af"><path d="M -114.734375 -407.203125 L 727.320312 -251.386719 L 542.804688 745.761719 L -299.25 589.945312 Z M -114.734375 -407.203125 " clip-rule="nonzero"/></clipPath><clipPath id="0812c8cde7"><path d="M 0 0 L 375 0 L 375 375 L 0 375 Z M 0 0 " clip-rule="nonzero"/></clipPath><clipPath id="1d23f5fd3f"><path d="M -114.734375 -407.203125 L 727.320312 -251.386719 L 542.804688 745.761719 L -299.25 589.945312 Z M -114.734375 -407.203125 " clip-rule="nonzero"/></clipPath><clipPath id="290a4019f9"><path d="M -114.734375 -407.203125 L 727.320312 -251.386719 L 542.804688 745.761719 L -299.25 589.945312 Z M -114.734375 -407.203125 " clip-rule="nonzero"/></clipPath><clipPath id="c29b707b48"><path d="M -113.378906 -414.523438 L 735.523438 -257.4375 L 548.296875 754.351562 L -300.605469 597.265625 Z M -113.378906 -414.523438 " clip-rule="nonzero"/></clipPath><clipPath id="6cebdc8aec"><path d="M -113.378906 -414.523438 L 735.519531 -257.4375 L 548.296875 754.347656 L -300.605469 597.265625 Z M -113.378906 -414.523438 " clip-rule="nonzero"/></clipPath><linearGradient x1="-253.375942" gradientTransform="matrix(0.731626, 0.135383, -0.135457, 0.732029, 186.083635, 30.480708)" y1="176.5" x2="333.91697" gradientUnits="userSpaceOnUse" y2="176.5" id="dc892daf69"><stop stop-opacity="1" stop-color="rgb(100%, 87.059021%, 34.899902%)" offset="0"/><stop stop-opacity="1" stop-color="rgb(100%, 87.059021%, 34.899902%)" offset="0.25"/><stop stop-opacity="1" stop-color="rgb(100%, 87.059021%, 34.899902%)" offset="0.375"/><stop stop-opacity="1" stop-color="rgb(100%, 87.059021%, 34.899902%)" offset="0.40625"/><stop stop-opacity="1" stop-color="rgb(100%, 87.059021%, 34.899902%)" offset="0.421875"/><stop stop-opacity="1" stop-color="rgb(100%, 87.059021%, 34.899902%)" offset="0.429688"/><stop stop-opacity="1" stop-color="rgb(100%, 86.701965%, 34.843445%)" offset="0.433594"/><stop stop-opacity="1" stop-color="rgb(100%, 86.346436%, 34.788513%)" offset="0.4375"/><stop stop-opacity="1" stop-color="rgb(100%, 85.887146%, 34.716797%)" offset="0.441406"/><stop stop-opacity="1" stop-color="rgb(100%, 85.429382%, 34.645081%)" offset="0.445312"/><stop stop-opacity="1" stop-color="rgb(100%, 84.971619%, 34.573364%)" offset="0.449219"/><stop stop-opacity="1" stop-color="rgb(100%, 84.513855%, 34.503174%)" offset="0.453125"/><stop stop-opacity="1" stop-color="rgb(100%, 84.054565%, 34.431458%)" offset="0.457031"/><stop stop-opacity="1" stop-color="rgb(100%, 83.596802%, 34.359741%)" offset="0.460938"/><stop stop-opacity="1" stop-color="rgb(100%, 83.137512%, 34.288025%)" offset="0.464844"/><stop stop-opacity="1" stop-color="rgb(100%, 82.679749%, 34.217834%)" offset="0.46875"/><stop stop-opacity="1" stop-color="rgb(100%, 82.220459%, 34.146118%)" offset="0.472656"/><stop stop-opacity="1" stop-color="rgb(100%, 81.762695%, 34.074402%)" offset="0.476562"/><stop stop-opacity="1" stop-color="rgb(100%, 81.303406%, 34.002686%)" offset="0.480469"/><stop stop-opacity="1" stop-color="rgb(100%, 80.845642%, 33.932495%)" offset="0.484375"/><stop stop-opacity="1" stop-color="rgb(100%, 80.386353%, 33.860779%)" offset="0.488281"/><stop stop-opacity="1" stop-color="rgb(100%, 79.928589%, 33.789062%)" offset="0.492188"/><stop stop-opacity="1" stop-color="rgb(100%, 79.469299%, 33.717346%)" offset="0.496094"/><stop stop-opacity="1" stop-color="rgb(100%, 79.011536%, 33.647156%)" offset="0.5"/><stop stop-opacity="1" stop-color="rgb(100%, 78.552246%, 33.575439%)" offset="0.503906"/><stop stop-opacity="1" stop-color="rgb(100%, 78.094482%, 33.503723%)" offset="0.507812"/><stop stop-opacity="1" stop-color="rgb(100%, 77.635193%, 33.432007%)" offset="0.511719"/><stop stop-opacity="1" stop-color="rgb(100%, 77.177429%, 33.361816%)" offset="0.515625"/><stop stop-opacity="1" stop-color="rgb(100%, 76.71814%, 33.2901%)" offset="0.519531"/><stop stop-opacity="1" stop-color="rgb(100%, 76.260376%, 33.218384%)" offset="0.523438"/><stop stop-opacity="1" stop-color="rgb(100%, 75.802612%, 33.146667%)" offset="0.527344"/><stop stop-opacity="1" stop-color="rgb(100%, 75.344849%, 33.076477%)" offset="0.53125"/><stop stop-opacity="1" stop-color="rgb(100%, 74.885559%, 33.004761%)" offset="0.535156"/><stop stop-opacity="1" stop-color="rgb(100%, 74.427795%, 32.933044%)" offset="0.539062"/><stop stop-opacity="1" stop-color="rgb(100%, 73.968506%, 32.861328%)" offset="0.542969"/><stop stop-opacity="1" stop-color="rgb(100%, 73.510742%, 32.791138%)" offset="0.546875"/><stop stop-opacity="1" stop-color="rgb(100%, 73.051453%, 32.719421%)" offset="0.550781"/><stop stop-opacity="1" stop-color="rgb(100%, 72.593689%, 32.647705%)" offset="0.554688"/><stop stop-opacity="1" stop-color="rgb(100%, 72.134399%, 32.575989%)" offset="0.558594"/><stop stop-opacity="1" stop-color="rgb(100%, 71.676636%, 32.505798%)" offset="0.5625"/><stop stop-opacity="1" stop-color="rgb(100%, 71.217346%, 32.434082%)" offset="0.566406"/><stop stop-opacity="1" stop-color="rgb(100%, 70.759583%, 32.362366%)" offset="0.570312"/><stop stop-opacity="1" stop-color="rgb(100%, 70.300293%, 32.290649%)" offset="0.574219"/><stop stop-opacity="1" stop-color="rgb(100%, 69.842529%, 32.220459%)" offset="0.578125"/><stop stop-opacity="1" stop-color="rgb(100%, 69.38324%, 32.148743%)" offset="0.582031"/><stop stop-opacity="1" stop-color="rgb(100%, 68.925476%, 32.077026%)" offset="0.585937"/><stop stop-opacity="1" stop-color="rgb(100%, 68.466187%, 32.00531%)" offset="0.589844"/><stop stop-opacity="1" stop-color="rgb(100%, 68.008423%, 31.93512%)" offset="0.59375"/><stop stop-opacity="1" stop-color="rgb(100%, 67.550659%, 31.863403%)" offset="0.597656"/><stop stop-opacity="1" stop-color="rgb(100%, 67.092896%, 31.791687%)" offset="0.601563"/><stop stop-opacity="1" stop-color="rgb(100%, 66.633606%, 31.719971%)" offset="0.605469"/><stop stop-opacity="1" stop-color="rgb(100%, 66.175842%, 31.64978%)" offset="0.609375"/><stop stop-opacity="1" stop-color="rgb(100%, 65.716553%, 31.578064%)" offset="0.613281"/><stop stop-opacity="1" stop-color="rgb(100%, 65.258789%, 31.506348%)" offset="0.617188"/><stop stop-opacity="1" stop-color="rgb(100%, 64.7995%, 31.434631%)" offset="0.621094"/><stop stop-opacity="1" stop-color="rgb(100%, 64.341736%, 31.364441%)" offset="0.625"/><stop stop-opacity="1" stop-color="rgb(100%, 63.882446%, 31.292725%)" offset="0.628906"/><stop stop-opacity="1" stop-color="rgb(100%, 63.424683%, 31.221008%)" offset="0.632812"/><stop stop-opacity="1" stop-color="rgb(100%, 62.965393%, 31.149292%)" offset="0.636719"/><stop stop-opacity="1" stop-color="rgb(100%, 62.507629%, 31.077576%)" offset="0.640625"/><stop stop-opacity="1" stop-color="rgb(100%, 62.04834%, 31.005859%)" offset="0.644531"/><stop stop-opacity="1" stop-color="rgb(100%, 61.590576%, 30.935669%)" offset="0.648438"/><stop stop-opacity="1" stop-color="rgb(100%, 61.131287%, 30.863953%)" offset="0.652344"/><stop stop-opacity="1" stop-color="rgb(100%, 60.673523%, 30.792236%)" offset="0.65625"/><stop stop-opacity="1" stop-color="rgb(100%, 60.214233%, 30.72052%)" offset="0.660156"/><stop stop-opacity="1" stop-color="rgb(100%, 59.75647%, 30.65033%)" offset="0.664062"/><stop stop-opacity="1" stop-color="rgb(100%, 59.298706%, 30.578613%)" offset="0.667969"/><stop stop-opacity="1" stop-color="rgb(100%, 58.840942%, 30.506897%)" offset="0.671875"/><stop stop-opacity="1" stop-color="rgb(100%, 58.381653%, 30.435181%)" offset="0.675781"/><stop stop-opacity="1" stop-color="rgb(100%, 57.923889%, 30.36499%)" offset="0.679688"/><stop stop-opacity="1" stop-color="rgb(100%, 57.4646%, 30.293274%)" offset="0.683594"/><stop stop-opacity="1" stop-color="rgb(100%, 57.006836%, 30.221558%)" offset="0.6875"/><stop stop-opacity="1" stop-color="rgb(100%, 56.932068%, 30.209351%)" offset="0.75"/><stop stop-opacity="1" stop-color="rgb(100%, 56.858826%, 30.198669%)" offset="1"/></linearGradient><clipPath id="904a5710b4"><rect x="0" width="375" y="0" height="375"/></clipPath><clipPath id="bcc2a2c2c9"><path d="M 0 0 L 375 0 L 375 375 L 0 375 Z M 0 0 " clip-rule="nonzero"/></clipPath><clipPath id="49748051e9"><path d="M -114.734375 -407.203125 L 727.320312 -251.386719 L 542.804688 745.761719 L -299.25 589.945312 Z M -114.734375 -407.203125 " clip-rule="nonzero"/></clipPath><clipPath id="731a2117a6"><path d="M 155 104 L 277 104 L 277 251 L 155 251 Z M 155 104 " clip-rule="nonzero"/></clipPath><clipPath id="70104ecbc7"><path d="M -114.734375 -407.203125 L 727.320312 -251.386719 L 542.804688 745.761719 L -299.25 589.945312 Z M -114.734375 -407.203125 " clip-rule="nonzero"/></clipPath><clipPath id="ac4da7943b"><rect x="0" width="375" y="0" height="375"/></clipPath><clipPath id="a5c1b55e9c"><rect x="0" width="375" y="0" height="375"/></clipPath><mask id="f825a86963"><g filter="url(#876b0054e2)"><g transform="matrix(1, 0, 0, 1, 0, 0)"><g clip-path="url(#a5c1b55e9c)"><g clip-path="url(#bcc2a2c2c9)"><g clip-path="url(#49748051e9)"><g transform="matrix(1, 0, 0, 1, 0, 0)"><g clip-path="url(#ac4da7943b)"><g clip-path="url(#731a2117a6)"><g clip-path="url(#70104ecbc7)"><g fill="#000000" fill-opacity="1"><g transform="translate(156.027916, 194.487279)"><g><path d="M 83.375 -78.109375 C 90.75 -76.742188 96.898438 -73.726562 101.828125 -69.0625 C 106.753906 -64.40625 110.210938 -58.515625 112.203125 -51.390625 C 114.191406 -44.273438 114.390625 -36.410156 112.796875 -27.796875 C 110.929688 -17.703125 107.421875 -9.378906 102.265625 -2.828125 C 97.109375 3.710938 91.085938 8.382812 84.203125 11.1875 C 77.316406 13.988281 70.359375 14.800781 63.328125 13.625 C 58.140625 12.789062 53.335938 11.070312 48.921875 8.46875 C 44.503906 5.875 40.789062 3.09375 37.78125 0.125 L 34.515625 18.796875 C 33.710938 23.097656 33.546875 26.375 34.015625 28.625 C 34.492188 30.882812 35.222656 32.613281 36.203125 33.8125 C 37.191406 35.007812 38.046875 36.085938 38.765625 37.046875 C 39.484375 38.003906 39.671875 39.40625 39.328125 41.25 C 39.035156 42.851562 38.191406 43.8125 36.796875 44.125 C 35.398438 44.445312 33.472656 44.378906 31.015625 43.921875 L 7.75 39.625 C 5.414062 39.1875 3.59375 38.554688 2.28125 37.734375 C 0.96875 36.921875 0.457031 35.710938 0.75 34.109375 C 1.09375 32.265625 1.800781 31.03125 2.875 30.40625 C 3.945312 29.78125 5.15625 29.082031 6.5 28.3125 C 7.851562 27.539062 9.179688 26.191406 10.484375 24.265625 C 11.796875 22.347656 12.851562 19.238281 13.65625 14.9375 L 26.90625 -58.765625 C 27.425781 -61.597656 27.472656 -64.101562 27.046875 -66.28125 C 26.628906 -68.46875 25.5 -70.429688 23.65625 -72.171875 C 22.914062 -72.941406 22.273438 -73.753906 21.734375 -74.609375 C 21.191406 -75.472656 21.019531 -76.460938 21.21875 -77.578125 C 21.46875 -78.929688 22.03125 -79.910156 22.90625 -80.515625 C 23.789062 -81.117188 25.429688 -81.707031 27.828125 -82.28125 C 31.429688 -83.269531 35.210938 -83.96875 39.171875 -84.375 C 43.140625 -84.78125 45.8125 -84.921875 47.1875 -84.796875 C 49.8125 -84.566406 50.804688 -82.734375 50.171875 -79.296875 L 47.5625 -66.21875 C 51.507812 -70.332031 56.460938 -73.710938 62.421875 -76.359375 C 68.390625 -79.003906 75.375 -79.585938 83.375 -78.109375 Z M 64.4375 3.515625 C 69.363281 4.429688 73.597656 3.753906 77.140625 1.484375 C 80.679688 -0.785156 83.613281 -4.09375 85.9375 -8.4375 C 88.269531 -12.78125 89.898438 -17.476562 90.828125 -22.53125 C 93.085938 -34.707031 92.421875 -44.6875 88.828125 -52.46875 C 85.242188 -60.25 80.003906 -64.78125 73.109375 -66.0625 C 68.441406 -66.925781 64.164062 -66.316406 60.28125 -64.234375 C 56.394531 -62.160156 53.207031 -59.222656 50.71875 -55.421875 C 48.238281 -51.617188 46.585938 -47.503906 45.765625 -43.078125 L 43.453125 -30.515625 C 42.429688 -24.347656 42.835938 -18.832031 44.671875 -13.96875 C 46.503906 -9.113281 49.238281 -5.171875 52.875 -2.140625 C 56.519531 0.878906 60.375 2.765625 64.4375 3.515625 Z M 64.4375 3.515625 "/></g></g></g></g></g></g></g></g></g></g></g></g></mask><clipPath id="66c9c69e4b"><path d="M 0 0 L 375 0 L 375 375 L 0 375 Z M 0 0 " clip-rule="nonzero"/></clipPath><clipPath id="76f8d28d14"><path d="M -114.734375 -407.203125 L 727.320312 -251.386719 L 542.804688 745.761719 L -299.25 589.945312 Z M -114.734375 -407.203125 " clip-rule="nonzero"/></clipPath><clipPath id="8e7556e3fb"><path d="M -114.734375 -407.203125 L 727.320312 -251.386719 L 542.804688 745.761719 L -299.25 589.945312 Z M -114.734375 -407.203125 " clip-rule="nonzero"/></clipPath><clipPath id="44faee1b8b"><path d="M -113.378906 -414.523438 L 735.523438 -257.4375 L 548.296875 754.351562 L -300.605469 597.265625 Z M -113.378906 -414.523438 " clip-rule="nonzero"/></clipPath><clipPath id="c39be82d7d"><path d="M -113.378906 -414.523438 L 735.519531 -257.4375 L 548.296875 754.347656 L -300.605469 597.265625 Z M -113.378906 -414.523438 " clip-rule="nonzero"/></clipPath><clipPath id="3115bff8df"><rect x="0" width="375" y="0" height="375"/></clipPath><clipPath id="5928002790"><rect x="0" width="375" y="0" height="375"/></clipPath><clipPath id="698ea5fad4"><rect x="0" width="375" y="0" height="375"/></clipPath><clipPath id="daf26839d7"><path d="M 225.242188 209.152344 L 318.132812 209.152344 L 318.132812 302.042969 L 225.242188 302.042969 Z M 225.242188 209.152344 " clip-rule="nonzero"/></clipPath><clipPath id="280eff810b"><path d="M 252 236 L 292 236 L 292 250.605469 L 252 250.605469 Z M 252 250.605469 L 283.792969 250.605469 L 283.792969 261.378906 L 252 261.378906 Z M 252 261.378906 L 292 261.378906 L 292 276 L 252 276 Z M 252 261.378906 " clip-rule="nonzero"/></clipPath><clipPath id="b35c893a61"><path d="M 246.320312 230.230469 L 297.84375 230.230469 L 297.84375 250.605469 L 246.320312 250.605469 Z M 246.320312 250.605469 L 283.792969 250.605469 L 283.792969 261.378906 L 246.320312 261.378906 Z M 246.320312 261.378906 L 297.84375 261.378906 L 297.84375 281.753906 L 246.320312 281.753906 Z M 246.320312 261.378906 " clip-rule="nonzero"/></clipPath><clipPath id="0018d467c5"><path d="M 61.507812 104.324219 L 130.167969 104.324219 L 130.167969 150.769531 L 61.507812 150.769531 Z M 61.507812 104.324219 " clip-rule="nonzero"/></clipPath><clipPath id="a54c64a7b0"><path d="M 0.96875 0.4375 L 279.398438 0.4375 L 279.398438 301 L 0.96875 301 Z M 0.96875 0.4375 " clip-rule="nonzero"/></clipPath><clipPath id="9e3ed51bc2"><path d="M 0.96875 0.4375 L 279.398438 0.4375 L 279.398438 301 L 0.96875 301 Z M 0.96875 0.4375 " clip-rule="nonzero"/></clipPath><clipPath id="80feb3e92e"><path d="M 0.96875 1.5 L 279.398438 1.5 L 279.398438 301 L 0.96875 301 Z M 0.96875 1.5 " clip-rule="nonzero"/></clipPath><linearGradient x1="-226.665991" gradientTransform="matrix(0.532553, 0.000000000000000033, -0.000000000000000033, 0.532075, 121.680996, 121.040125)" y1="79" x2="296.150812" gradientUnits="userSpaceOnUse" y2="79" id="58c0ec268f"><stop stop-opacity="1" stop-color="rgb(100%, 87.059021%, 34.899902%)" offset="0"/><stop stop-opacity="1" stop-color="rgb(100%, 87.059021%, 34.899902%)" offset="0.25"/><stop stop-opacity="1" stop-color="rgb(100%, 87.059021%, 34.899902%)" offset="0.375"/><stop stop-opacity="1" stop-color="rgb(100%, 87.059021%, 34.899902%)" offset="0.40625"/><stop stop-opacity="1" stop-color="rgb(100%, 87.059021%, 34.899902%)" offset="0.421875"/><stop stop-opacity="1" stop-color="rgb(100%, 87.059021%, 34.899902%)" offset="0.429688"/><stop stop-opacity="1" stop-color="rgb(100%, 86.610413%, 34.829712%)" offset="0.433594"/><stop stop-opacity="1" stop-color="rgb(100%, 86.161804%, 34.759521%)" offset="0.4375"/><stop stop-opacity="1" stop-color="rgb(100%, 85.273743%, 34.620667%)" offset="0.441406"/><stop stop-opacity="1" stop-color="rgb(100%, 84.387207%, 34.483337%)" offset="0.445312"/><stop stop-opacity="1" stop-color="rgb(100%, 83.499146%, 34.344482%)" offset="0.449219"/><stop stop-opacity="1" stop-color="rgb(100%, 82.61261%, 34.207153%)" offset="0.453125"/><stop stop-opacity="1" stop-color="rgb(100%, 81.724548%, 34.068298%)" offset="0.457031"/><stop stop-opacity="1" stop-color="rgb(100%, 80.838013%, 33.930969%)" offset="0.460938"/><stop stop-opacity="1" stop-color="rgb(100%, 79.949951%, 33.792114%)" offset="0.464844"/><stop stop-opacity="1" stop-color="rgb(100%, 79.063416%, 33.654785%)" offset="0.46875"/><stop stop-opacity="1" stop-color="rgb(100%, 78.175354%, 33.51593%)" offset="0.472656"/><stop stop-opacity="1" stop-color="rgb(100%, 77.288818%, 33.378601%)" offset="0.476562"/><stop stop-opacity="1" stop-color="rgb(100%, 76.400757%, 33.239746%)" offset="0.480469"/><stop stop-opacity="1" stop-color="rgb(100%, 75.514221%, 33.102417%)" offset="0.484375"/><stop stop-opacity="1" stop-color="rgb(100%, 74.627686%, 32.963562%)" offset="0.488281"/><stop stop-opacity="1" stop-color="rgb(100%, 73.74115%, 32.826233%)" offset="0.492188"/><stop stop-opacity="1" stop-color="rgb(100%, 72.853088%, 32.687378%)" offset="0.496094"/><stop stop-opacity="1" stop-color="rgb(100%, 71.966553%, 32.550049%)" offset="0.5"/><stop stop-opacity="1" stop-color="rgb(100%, 71.078491%, 32.411194%)" offset="0.503906"/><stop stop-opacity="1" stop-color="rgb(100%, 70.191956%, 32.273865%)" offset="0.507812"/><stop stop-opacity="1" stop-color="rgb(100%, 69.303894%, 32.13501%)" offset="0.511719"/><stop stop-opacity="1" stop-color="rgb(100%, 68.417358%, 31.997681%)" offset="0.515625"/><stop stop-opacity="1" stop-color="rgb(100%, 67.529297%, 31.858826%)" offset="0.519531"/><stop stop-opacity="1" stop-color="rgb(100%, 66.642761%, 31.721497%)" offset="0.523438"/><stop stop-opacity="1" stop-color="rgb(100%, 65.7547%, 31.582642%)" offset="0.527344"/><stop stop-opacity="1" stop-color="rgb(100%, 64.868164%, 31.445312%)" offset="0.53125"/><stop stop-opacity="1" stop-color="rgb(100%, 63.980103%, 31.306458%)" offset="0.535156"/><stop stop-opacity="1" stop-color="rgb(100%, 63.093567%, 31.169128%)" offset="0.539062"/><stop stop-opacity="1" stop-color="rgb(100%, 62.205505%, 31.030273%)" offset="0.542969"/><stop stop-opacity="1" stop-color="rgb(100%, 61.31897%, 30.892944%)" offset="0.546875"/><stop stop-opacity="1" stop-color="rgb(100%, 60.430908%, 30.754089%)" offset="0.550781"/><stop stop-opacity="1" stop-color="rgb(100%, 59.544373%, 30.61676%)" offset="0.554688"/><stop stop-opacity="1" stop-color="rgb(100%, 58.656311%, 30.477905%)" offset="0.558594"/><stop stop-opacity="1" stop-color="rgb(100%, 57.769775%, 30.340576%)" offset="0.5625"/><stop stop-opacity="1" stop-color="rgb(100%, 57.313538%, 30.26886%)" offset="0.566406"/><stop stop-opacity="1" stop-color="rgb(100%, 56.858826%, 30.198669%)" offset="0.570312"/><stop stop-opacity="1" stop-color="rgb(100%, 56.858826%, 30.198669%)" offset="0.578125"/><stop stop-opacity="1" stop-color="rgb(100%, 56.858826%, 30.198669%)" offset="0.59375"/><stop stop-opacity="1" stop-color="rgb(100%, 56.858826%, 30.198669%)" offset="0.625"/><stop stop-opacity="1" stop-color="rgb(100%, 56.858826%, 30.198669%)" offset="0.75"/><stop stop-opacity="1" stop-color="rgb(100%, 56.858826%, 30.198669%)" offset="1"/></linearGradient><clipPath id="6386ea8add"><rect x="0" width="280" y="0" height="301"/></clipPath><clipPath id="d3f5e8e110"><path d="M 0.96875 0.4375 L 279.398438 0.4375 L 279.398438 301 L 0.96875 301 Z M 0.96875 0.4375 " clip-rule="nonzero"/></clipPath><clipPath id="bdef45b8b3"><rect x="0" width="280" y="0" height="301"/></clipPath><clipPath id="b2469391d8"><rect x="0" width="280" y="0" height="301"/></clipPath><mask id="159b0fb05b"><g filter="url(#876b0054e2)"><g><g clip-path="url(#b2469391d8)"><g clip-path="url(#d3f5e8e110)"><g><g clip-path="url(#bdef45b8b3)"><g fill="#000000" fill-opacity="1"><g transform="translate(121.816524, 186.231946)"><g><path d="M 19.09375 0.625 C 16.101562 0.625 13.441406 0.253906 11.109375 -0.484375 C 8.785156 -1.222656 6.847656 -2.191406 5.296875 -3.390625 C 3.742188 -4.585938 2.554688 -5.898438 1.734375 -7.328125 L 6.421875 -13.046875 L 7.15625 -13.046875 C 8.457031 -11.117188 10.101562 -9.585938 12.09375 -8.453125 C 14.082031 -7.316406 16.414062 -6.75 19.09375 -6.75 C 21.363281 -6.75 23.078125 -7.226562 24.234375 -8.1875 C 25.398438 -9.144531 25.984375 -10.472656 25.984375 -12.171875 C 25.984375 -13.191406 25.796875 -14.046875 25.421875 -14.734375 C 25.046875 -15.421875 24.425781 -16.007812 23.5625 -16.5 C 22.695312 -16.988281 21.53125 -17.410156 20.0625 -17.765625 L 14.515625 -19.03125 C 10.648438 -19.914062 7.769531 -21.382812 5.875 -23.4375 C 3.976562 -25.488281 3.03125 -28.15625 3.03125 -31.4375 C 3.03125 -33.863281 3.640625 -36 4.859375 -37.84375 C 6.078125 -39.695312 7.847656 -41.132812 10.171875 -42.15625 C 12.503906 -43.175781 15.289062 -43.6875 18.53125 -43.6875 C 21.84375 -43.6875 24.679688 -43.25 27.046875 -42.375 C 29.421875 -41.5 31.421875 -40.160156 33.046875 -38.359375 L 28.84375 -32.578125 L 28.109375 -32.578125 C 26.890625 -33.859375 25.492188 -34.816406 23.921875 -35.453125 C 22.347656 -36.085938 20.550781 -36.40625 18.53125 -36.40625 C 16.1875 -36.40625 14.40625 -35.992188 13.1875 -35.171875 C 11.976562 -34.347656 11.375 -33.207031 11.375 -31.75 C 11.375 -30.394531 11.800781 -29.316406 12.65625 -28.515625 C 13.507812 -27.710938 14.984375 -27.082031 17.078125 -26.625 L 22.734375 -25.453125 C 26.921875 -24.566406 29.957031 -23.066406 31.84375 -20.953125 C 33.726562 -18.847656 34.671875 -16.097656 34.671875 -12.703125 C 34.671875 -10.003906 34.085938 -7.660156 32.921875 -5.671875 C 31.765625 -3.679688 30.019531 -2.132812 27.6875 -1.03125 C 25.351562 0.0703125 22.488281 0.625 19.09375 0.625 Z M 19.09375 0.625 "/></g></g></g></g></g></g></g></g></g></mask><clipPath id="dd80f4d415"><path d="M 0.96875 1.5 L 279.398438 1.5 L 279.398438 301 L 0.96875 301 Z M 0.96875 1.5 " clip-rule="nonzero"/></clipPath><clipPath id="5fdc594605"><rect x="0" width="280" y="0" height="301"/></clipPath><clipPath id="cff486f15f"><rect x="0" width="280" y="0" height="301"/></clipPath><clipPath id="a37ff7b30b"><rect x="0" width="280" y="0" height="301"/></clipPath><clipPath id="2febabbf9d"><rect x="0" width="375" y="0" height="375"/></clipPath></defs><rect x="-37.5" width="450" fill="#ffffff" y="-37.499999" height="449.999989" fill-opacity="1"/><rect x="-37.5" width="450" fill="#131929" y="-37.499999" height="449.999989" fill-opacity="1"/><g transform="matrix(1, 0, 0, 1, 0, 0)"><g clip-path="url(#2febabbf9d)"><g transform="matrix(1, 0, 0, 1, 0, 0)"><g clip-path="url(#3bff134dca)"><g clip-path="url(#c20d5852e5)"><g clip-path="url(#3dbdaa29a9)"><g transform="matrix(1, 0, 0, 1, 0, 0)"><g clip-path="url(#188722ef92)"><g clip-path="url(#27900690bd)"><g clip-path="url(#1211eaf074)"><g mask="url(#c4b0fde100)"><g transform="matrix(1, 0, 0, 1, 0, 0)"><g clip-path="url(#afe5d7cdcb)"><g clip-path="url(#fef1244267)"><g clip-path="url(#cca0803e93)"><g clip-path="url(#cd3ad5949d)"><g clip-path="url(#a5502c2a73)"><g clip-path="url(#3dba0afd2c)"><path fill="url(#cc6fae791e)" d="M -40.972656 4.53125 L 4.53125 415.972656 L 415.972656 370.46875 L 370.46875 -40.972656 Z M -40.972656 4.53125 " fill-rule="nonzero"/></g></g></g></g></g></g></g></g></g></g></g></g></g></g></g></g><g transform="matrix(1, 0, 0, 1, 0, 0)"><g clip-path="url(#698ea5fad4)"><g clip-path="url(#cc18d1bfa9)"><g clip-path="url(#ebb3d2f7ea)"><g transform="matrix(1, 0, 0, 1, 0, 0)"><g clip-path="url(#5928002790)"><g clip-path="url(#3b2fce3ff8)"><g clip-path="url(#9c513902af)"><g mask="url(#f825a86963)"><g transform="matrix(1, 0, 0, 1, 0, 0)"><g clip-path="url(#3115bff8df)"><g clip-path="url(#66c9c69e4b)"><g clip-path="url(#76f8d28d14)"><g clip-path="url(#8e7556e3fb)"><g clip-path="url(#44faee1b8b)"><g clip-path="url(#c39be82d7d)"><path fill="url(#dc892daf69)" d="M 12.414062 -67.09375 L -67.09375 362.585938 L 362.585938 442.09375 L 442.09375 12.414062 Z M 12.414062 -67.09375 " fill-rule="nonzero"/></g></g></g></g></g></g></g></g></g></g></g></g></g></g></g></g><path stroke-linecap="butt" transform="matrix(0, -2.019371, 2.019371, 0, 56.059213, 289.593732)" fill="none" stroke-linejoin="miter" d="M -0.00000882288 6.000171 L 65.624169 6.000171 " stroke="#ffde59" stroke-width="12" stroke-opacity="1" stroke-miterlimit="4"/><path stroke-linecap="butt" transform="matrix(2.019371, 0, 0, 2.019371, 56.898534, 157.21455)" fill="none" stroke-linejoin="miter" d="M -0.0000475711 6.000622 L 51.025284 6.000622 " stroke="#ffde59" stroke-width="12" stroke-opacity="1" stroke-miterlimit="4"/><path stroke-linecap="butt" transform="matrix(0, -2.019371, 2.019371, 0, 135.553296, 178.207709)" fill="none" stroke-linejoin="miter" d="M 0.000335673 5.999232 L 51.025673 5.999232 " stroke="#ffde59" stroke-width="12" stroke-opacity="1" stroke-miterlimit="4"/><path stroke-linecap="butt" transform="matrix(2.019371, -0.000000000000000751, 0.000000000000000751, 2.019371, 141.982613, 75.320503)" fill="none" stroke-linejoin="miter" d="M 0.00087266 6.000383 L 79.711278 6.000383 " stroke="#ffde59" stroke-width="12" stroke-opacity="1" stroke-miterlimit="4"/><path stroke-linecap="butt" transform="matrix(0, -2.019371, 2.019371, 0, 278.569966, 277.331641)" fill="none" stroke-linejoin="miter" d="M -0.000193259 6.000649 L 99.410039 6.000649 " stroke="#ffde59" stroke-width="12" stroke-opacity="1" stroke-miterlimit="4"/><path stroke-linecap="butt" transform="matrix(2.019371, 0, 0, 2.019371, 61.499758, 265.219319)" fill="none" stroke-linejoin="miter" d="M 0.000119809 6.000195 L 119.566683 6.000195 " stroke="#ffde59" stroke-width="12" stroke-opacity="1" stroke-miterlimit="4"/><path fill="#ffbd59" d="M 313.535156 255.992188 C 313.535156 257.347656 313.46875 258.703125 313.335938 260.054688 C 313.203125 261.40625 313.003906 262.746094 312.738281 264.078125 C 312.472656 265.410156 312.144531 266.722656 311.75 268.023438 C 311.355469 269.324219 310.898438 270.601562 310.378906 271.855469 C 309.859375 273.109375 309.28125 274.335938 308.640625 275.53125 C 308 276.730469 307.304688 277.890625 306.546875 279.019531 C 305.792969 280.148438 304.988281 281.238281 304.125 282.289062 C 303.265625 283.335938 302.355469 284.34375 301.394531 285.300781 C 300.433594 286.261719 299.429688 287.171875 298.378906 288.035156 C 297.328125 288.894531 296.242188 289.703125 295.113281 290.457031 C 293.984375 291.210938 292.820312 291.910156 291.621094 292.550781 C 290.425781 293.1875 289.199219 293.769531 287.945312 294.289062 C 286.691406 294.808594 285.414062 295.265625 284.113281 295.660156 C 282.816406 296.054688 281.5 296.382812 280.167969 296.648438 C 278.835938 296.914062 277.496094 297.109375 276.144531 297.246094 C 274.792969 297.378906 273.4375 297.445312 272.082031 297.445312 C 270.722656 297.445312 269.371094 297.378906 268.019531 297.246094 C 266.667969 297.109375 265.324219 296.914062 263.996094 296.648438 C 262.664062 296.382812 261.347656 296.054688 260.046875 295.660156 C 258.75 295.265625 257.472656 294.808594 256.21875 294.289062 C 254.964844 293.769531 253.738281 293.1875 252.539062 292.550781 C 251.34375 291.910156 250.179688 291.210938 249.050781 290.457031 C 247.921875 289.703125 246.832031 288.894531 245.785156 288.035156 C 244.734375 287.171875 243.730469 286.261719 242.769531 285.300781 C 241.808594 284.34375 240.898438 283.335938 240.039062 282.289062 C 239.175781 281.238281 238.367188 280.148438 237.613281 279.019531 C 236.859375 277.890625 236.164062 276.730469 235.523438 275.53125 C 234.882812 274.335938 234.304688 273.109375 233.785156 271.855469 C 233.265625 270.601562 232.808594 269.324219 232.414062 268.023438 C 232.019531 266.722656 231.691406 265.410156 231.425781 264.078125 C 231.160156 262.746094 230.960938 261.40625 230.828125 260.054688 C 230.695312 258.703125 230.628906 257.347656 230.628906 255.992188 C 230.628906 254.632812 230.695312 253.277344 230.828125 251.925781 C 230.960938 250.578125 231.160156 249.234375 231.425781 247.902344 C 231.691406 246.570312 232.019531 245.257812 232.414062 243.957031 C 232.808594 242.65625 233.265625 241.382812 233.785156 240.128906 C 234.304688 238.871094 234.882812 237.648438 235.523438 236.449219 C 236.164062 235.253906 236.859375 234.089844 237.613281 232.960938 C 238.367188 231.832031 239.175781 230.742188 240.039062 229.691406 C 240.898438 228.644531 241.808594 227.636719 242.769531 226.679688 C 243.730469 225.71875 244.734375 224.808594 245.785156 223.945312 C 246.832031 223.085938 247.921875 222.277344 249.050781 221.523438 C 250.179688 220.769531 251.34375 220.070312 252.539062 219.433594 C 253.738281 218.792969 254.964844 218.210938 256.21875 217.691406 C 257.472656 217.171875 258.75 216.714844 260.046875 216.320312 C 261.347656 215.929688 262.664062 215.597656 263.996094 215.332031 C 265.324219 215.070312 266.667969 214.871094 268.019531 214.738281 C 269.371094 214.605469 270.722656 214.539062 272.082031 214.539062 C 273.4375 214.539062 274.792969 214.605469 276.144531 214.738281 C 277.496094 214.871094 278.835938 215.070312 280.167969 215.332031 C 281.5 215.597656 282.816406 215.929688 284.113281 216.320312 C 285.414062 216.714844 286.691406 217.171875 287.945312 217.691406 C 289.199219 218.210938 290.425781 218.792969 291.621094 219.433594 C 292.820312 220.070312 293.984375 220.769531 295.113281 221.523438 C 296.242188 222.277344 297.328125 223.085938 298.378906 223.945312 C 299.429688 224.808594 300.433594 225.71875 301.394531 226.679688 C 302.355469 227.636719 303.265625 228.644531 304.125 229.691406 C 304.988281 230.742188 305.792969 231.832031 306.546875 232.960938 C 307.304688 234.089844 308 235.253906 308.640625 236.449219 C 309.28125 237.648438 309.859375 238.871094 310.378906 240.128906 C 310.898438 241.382812 311.355469 242.65625 311.75 243.957031 C 312.144531 245.257812 312.472656 246.570312 312.738281 247.902344 C 313.003906 249.234375 313.203125 250.578125 313.335938 251.925781 C 313.46875 253.277344 313.535156 254.632812 313.535156 255.992188 Z M 313.535156 255.992188 " fill-opacity="1" fill-rule="nonzero"/><g clip-path="url(#daf26839d7)"><path stroke-linecap="butt" transform="matrix(0.468399, 0, 0, 0.468399, 225.241675, 209.150552)" fill="none" stroke-linejoin="miter" d="M 188.500444 100.003635 C 188.500444 102.897467 188.358672 105.791298 188.075126 108.67679 C 187.791581 111.562282 187.366263 114.422755 186.799172 117.26655 C 186.232081 120.110344 185.531557 122.91244 184.68926 125.689517 C 183.846963 128.466595 182.871233 131.193635 181.76207 133.870638 C 180.652907 136.54764 179.41865 139.166266 178.050961 141.718175 C 176.683271 144.278424 175.198827 146.755277 173.58095 149.165413 C 171.971412 151.575549 170.253461 153.90229 168.410415 156.145635 C 166.575709 158.38064 164.632589 160.53225 162.581054 162.575445 C 160.529519 164.62698 158.386249 166.5701 156.142905 168.413145 C 153.89956 170.247851 151.581159 171.974143 149.171022 173.58368 C 146.760886 175.193218 144.275693 176.686001 141.715445 178.053691 C 139.163536 179.413041 136.54491 180.655637 133.867907 181.764801 C 131.190905 182.873964 128.463865 183.849694 125.686787 184.69199 C 122.918049 185.534287 120.107613 186.234811 117.263819 186.801902 C 114.420025 187.368993 111.559552 187.785972 108.67406 188.077857 C 105.788568 188.361402 102.894736 188.503175 100.000905 188.503175 C 97.098734 188.503175 94.213242 188.361402 91.32775 188.077857 C 88.442258 187.785972 85.573445 187.368993 82.73799 186.801902 C 79.894196 186.234811 77.083761 185.534287 74.306683 184.69199 C 71.537945 183.849694 68.810905 182.873964 66.133902 181.764801 C 63.4569 180.655637 60.838274 179.413041 58.278025 178.053691 C 55.726116 176.686001 53.240924 175.193218 50.830787 173.58368 C 48.420651 171.974143 46.09391 170.247851 43.858905 168.413145 C 41.61556 166.5701 39.47229 164.62698 37.420755 162.575445 C 35.369221 160.53225 33.4261 158.38064 31.591394 156.145635 C 29.748349 153.90229 28.022058 151.575549 26.41252 149.165413 C 24.802983 146.755277 23.318539 144.278424 21.950849 141.718175 C 20.583159 139.166266 19.348903 136.54764 18.239739 133.870638 C 17.130576 131.193635 16.154846 128.466595 15.31255 125.689517 C 14.470253 122.91244 13.769729 120.110344 13.202638 117.26655 C 12.635547 114.422755 12.210229 111.562282 11.926683 108.67679 C 11.643138 105.791298 11.501365 102.897467 11.501365 100.003635 C 11.501365 97.101464 11.643138 94.207633 11.926683 91.322141 C 12.210229 88.444988 12.635547 85.576175 13.202638 82.732381 C 13.769729 79.888587 14.470253 77.086491 15.31255 74.309413 C 16.154846 71.532336 17.130576 68.813635 18.239739 66.136633 C 19.348903 63.45129 20.583159 60.841004 21.950849 58.280756 C 23.318539 55.728847 24.802983 53.243654 26.41252 50.833518 C 28.022058 48.423381 29.748349 46.096641 31.591394 43.853296 C 33.4261 41.618291 35.369221 39.466681 37.420755 37.423486 C 39.47229 35.371951 41.61556 33.428831 43.858905 31.585785 C 46.09391 29.751079 48.420651 28.024788 50.830787 26.415251 C 53.240924 24.805713 55.726116 23.31293 58.278025 21.953579 C 60.838274 20.58589 63.4569 19.343293 66.133902 18.23413 C 68.810905 17.124967 71.537945 16.149237 74.306683 15.30694 C 77.083761 14.472983 79.894196 13.76412 82.73799 13.197029 C 85.573445 12.638277 88.442258 12.212959 91.32775 11.929414 C 94.213242 11.645868 97.098734 11.504096 100.000905 11.504096 C 102.894736 11.504096 105.788568 11.645868 108.67406 11.929414 C 111.559552 12.212959 114.420025 12.638277 117.263819 13.197029 C 120.107613 13.76412 122.918049 14.472983 125.686787 15.30694 C 128.463865 16.149237 131.190905 17.124967 133.867907 18.23413 C 136.54491 19.343293 139.163536 20.58589 141.715445 21.953579 C 144.275693 23.31293 146.760886 24.805713 149.171022 26.415251 C 151.581159 28.024788 153.89956 29.751079 156.142905 31.585785 C 158.386249 33.428831 160.529519 35.371951 162.581054 37.423486 C 164.632589 39.466681 166.575709 41.618291 168.410415 43.853296 C 170.253461 46.096641 171.971412 48.423381 173.58095 50.833518 C 175.198827 53.243654 176.683271 55.728847 178.050961 58.280756 C 179.41865 60.841004 180.652907 63.45129 181.76207 66.136633 C 182.871233 68.813635 183.846963 71.532336 184.68926 74.309413 C 185.531557 77.086491 186.232081 79.888587 186.799172 82.732381 C 187.366263 85.576175 187.791581 88.444988 188.075126 91.322141 C 188.358672 94.207633 188.500444 97.101464 188.500444 100.003635 Z M 188.500444 100.003635 " stroke="#000000" stroke-width="23" stroke-opacity="1" stroke-miterlimit="4"/></g><g clip-path="url(#280eff810b)"><path fill="#ffbd59" d="M 291.988281 255.992188 C 291.988281 256.640625 291.957031 257.292969 291.894531 257.941406 C 291.828125 258.589844 291.734375 259.234375 291.605469 259.875 C 291.480469 260.511719 291.320312 261.144531 291.132812 261.769531 C 290.941406 262.394531 290.722656 263.007812 290.472656 263.609375 C 290.222656 264.210938 289.945312 264.800781 289.636719 265.375 C 289.332031 265.949219 288.996094 266.507812 288.632812 267.050781 C 288.269531 267.59375 287.882812 268.117188 287.46875 268.621094 C 287.054688 269.125 286.617188 269.605469 286.15625 270.066406 C 285.695312 270.527344 285.214844 270.964844 284.710938 271.378906 C 284.207031 271.792969 283.683594 272.179688 283.140625 272.542969 C 282.597656 272.90625 282.039062 273.238281 281.464844 273.546875 C 280.890625 273.855469 280.300781 274.132812 279.699219 274.382812 C 279.097656 274.632812 278.484375 274.851562 277.859375 275.039062 C 277.238281 275.230469 276.605469 275.386719 275.964844 275.515625 C 275.324219 275.640625 274.683594 275.738281 274.03125 275.800781 C 273.382812 275.867188 272.734375 275.898438 272.082031 275.898438 C 271.429688 275.898438 270.777344 275.867188 270.128906 275.800781 C 269.480469 275.738281 268.835938 275.640625 268.199219 275.515625 C 267.558594 275.386719 266.925781 275.230469 266.304688 275.039062 C 265.679688 274.851562 265.066406 274.632812 264.464844 274.382812 C 263.859375 274.132812 263.273438 273.855469 262.699219 273.546875 C 262.121094 273.238281 261.5625 272.90625 261.023438 272.542969 C 260.480469 272.179688 259.957031 271.792969 259.453125 271.378906 C 258.949219 270.964844 258.464844 270.527344 258.003906 270.066406 C 257.542969 269.605469 257.105469 269.125 256.691406 268.621094 C 256.28125 268.117188 255.890625 267.59375 255.53125 267.050781 C 255.167969 266.507812 254.832031 265.949219 254.523438 265.375 C 254.21875 264.800781 253.941406 264.210938 253.691406 263.609375 C 253.441406 263.007812 253.222656 262.394531 253.03125 261.769531 C 252.84375 261.144531 252.683594 260.511719 252.558594 259.875 C 252.429688 259.234375 252.335938 258.589844 252.269531 257.941406 C 252.207031 257.292969 252.175781 256.640625 252.175781 255.992188 C 252.175781 255.339844 252.207031 254.6875 252.269531 254.039062 C 252.335938 253.390625 252.429688 252.746094 252.558594 252.105469 C 252.683594 251.46875 252.84375 250.835938 253.03125 250.210938 C 253.222656 249.585938 253.441406 248.976562 253.691406 248.371094 C 253.941406 247.769531 254.21875 247.179688 254.523438 246.605469 C 254.832031 246.03125 255.167969 245.472656 255.53125 244.929688 C 255.890625 244.386719 256.28125 243.867188 256.691406 243.363281 C 257.105469 242.859375 257.542969 242.375 258.003906 241.914062 C 258.464844 241.453125 258.949219 241.015625 259.453125 240.601562 C 259.957031 240.1875 260.480469 239.800781 261.023438 239.4375 C 261.5625 239.078125 262.121094 238.742188 262.699219 238.433594 C 263.273438 238.125 263.859375 237.847656 264.464844 237.597656 C 265.066406 237.347656 265.679688 237.128906 266.304688 236.941406 C 266.925781 236.75 267.558594 236.59375 268.199219 236.464844 C 268.835938 236.339844 269.480469 236.242188 270.128906 236.179688 C 270.777344 236.117188 271.429688 236.082031 272.082031 236.082031 C 272.734375 236.082031 273.382812 236.117188 274.03125 236.179688 C 274.683594 236.242188 275.324219 236.339844 275.964844 236.464844 C 276.605469 236.59375 277.238281 236.75 277.859375 236.941406 C 278.484375 237.128906 279.097656 237.347656 279.699219 237.597656 C 280.300781 237.847656 280.890625 238.125 281.464844 238.433594 C 282.039062 238.742188 282.597656 239.078125 283.140625 239.4375 C 283.683594 239.800781 284.207031 240.1875 284.710938 240.601562 C 285.214844 241.015625 285.695312 241.453125 286.15625 241.914062 C 286.617188 242.375 287.054688 242.859375 287.46875 243.363281 C 287.882812 243.867188 288.269531 244.386719 288.632812 244.929688 C 288.996094 245.472656 289.332031 246.03125 289.636719 246.605469 C 289.945312 247.179688 290.222656 247.769531 290.472656 248.371094 C 290.722656 248.976562 290.941406 249.589844 291.132812 250.210938 C 291.320312 250.835938 291.480469 251.46875 291.605469 252.105469 C 291.734375 252.746094 291.828125 253.390625 291.894531 254.039062 C 291.957031 254.6875 291.988281 255.339844 291.988281 255.992188 Z M 291.988281 255.992188 " fill-opacity="1" fill-rule="nonzero"/></g><g clip-path="url(#b35c893a61)"><path stroke-linecap="butt" transform="matrix(0.468399, 0, 0, 0.468399, 225.241675, 209.150552)" fill="none" stroke-linejoin="miter" d="M 142.499364 100.003635 C 142.499364 101.388004 142.432648 102.780713 142.299215 104.165082 C 142.157442 105.549451 141.957292 106.92548 141.682086 108.29317 C 141.41522 109.65252 141.073298 111.003531 140.672998 112.337862 C 140.264359 113.672194 139.797343 114.981507 139.26361 116.265801 C 138.729878 117.550095 138.137768 118.80937 137.478942 120.035287 C 136.828455 121.261205 136.111252 122.453763 135.335672 123.612964 C 134.560092 124.772164 133.734474 125.889667 132.85048 126.965472 C 131.966485 128.041277 131.032453 129.067044 130.048383 130.051114 C 129.064314 131.035183 128.038546 131.969215 126.962742 132.85321 C 125.886937 133.737205 124.769434 134.562822 123.610234 135.338402 C 122.451033 136.113983 121.258474 136.822846 120.032557 137.481672 C 118.80664 138.140499 117.547365 138.732608 116.263071 139.266341 C 114.978776 139.800073 113.669464 140.267089 112.335132 140.667389 C 111.00914 141.076028 109.658129 141.409611 108.29044 141.684817 C 106.92275 141.951683 105.55506 142.160172 104.162351 142.293606 C 102.777982 142.435378 101.393613 142.502095 100.000905 142.502095 C 98.608196 142.502095 97.215488 142.435378 95.831119 142.293606 C 94.44675 142.160172 93.07072 141.951683 91.71137 141.684817 C 90.34368 141.409611 88.99267 141.076028 87.666678 140.667389 C 86.332346 140.267089 85.023033 139.800073 83.738739 139.266341 C 82.446105 138.732608 81.19517 138.140499 79.969253 137.481672 C 78.734996 136.822846 77.542437 136.113983 76.391576 135.338402 C 75.232376 134.562822 74.114873 133.737205 73.039068 132.85321 C 71.963263 131.969215 70.929156 131.035183 69.945087 130.051114 C 68.961017 129.067044 68.026985 128.041277 67.142991 126.965472 C 66.267335 125.889667 65.433378 124.772164 64.666138 123.612964 C 63.890557 122.453763 63.173354 121.261205 62.514528 120.035287 C 61.864041 118.80937 61.271932 117.550095 60.738199 116.265801 C 60.204467 114.981507 59.73745 113.672194 59.328811 112.337862 C 58.928512 111.003531 58.58659 109.65252 58.319723 108.29317 C 58.044517 106.92548 57.844368 105.549451 57.702595 104.165082 C 57.569162 102.780713 57.502445 101.388004 57.502445 100.003635 C 57.502445 98.610927 57.569162 97.218218 57.702595 95.833849 C 57.844368 94.44948 58.044517 93.073451 58.319723 91.705761 C 58.58659 90.346411 58.928512 88.9954 59.328811 87.661068 C 59.73745 86.326737 60.204467 85.025764 60.738199 83.73313 C 61.271932 82.448836 61.864041 81.18956 62.514528 79.963643 C 63.173354 78.737726 63.890557 77.545167 64.666138 76.385967 C 65.433378 75.226766 66.267335 74.117603 67.142991 73.041798 C 68.026985 71.965994 68.961017 70.931887 69.945087 69.947817 C 70.929156 68.963748 71.963263 68.029716 73.039068 67.145721 C 74.114873 66.261726 75.232376 65.436109 76.391576 64.660528 C 77.542437 63.893288 78.734996 63.176085 79.969253 62.517258 C 81.19517 61.858432 82.446105 61.266323 83.738739 60.73259 C 85.023033 60.198857 86.332346 59.731841 87.666678 59.331542 C 88.99267 58.922903 90.34368 58.58932 91.71137 58.314114 C 93.07072 58.047248 94.44675 57.838758 95.831119 57.705325 C 97.215488 57.571892 98.608196 57.496836 100.000905 57.496836 C 101.393613 57.496836 102.777982 57.571892 104.162351 57.705325 C 105.55506 57.838758 106.92275 58.047248 108.29044 58.314114 C 109.658129 58.58932 111.00914 58.922903 112.335132 59.331542 C 113.669464 59.731841 114.978776 60.198857 116.263071 60.73259 C 117.547365 61.266323 118.80664 61.858432 120.032557 62.517258 C 121.258474 63.176085 122.451033 63.893288 123.610234 64.660528 C 124.769434 65.436109 125.886937 66.261726 126.962742 67.145721 C 128.038546 68.029716 129.064314 68.963748 130.048383 69.947817 C 131.032453 70.931887 131.966485 71.965994 132.85048 73.041798 C 133.734474 74.117603 134.560092 75.226766 135.335672 76.385967 C 136.111252 77.545167 136.828455 78.737726 137.478942 79.963643 C 138.137768 81.18956 138.729878 82.448836 139.26361 83.73313 C 139.797343 85.025764 140.264359 86.335076 140.672998 87.661068 C 141.073298 88.9954 141.41522 90.346411 141.682086 91.705761 C 141.957292 93.073451 142.157442 94.44948 142.299215 95.833849 C 142.432648 97.218218 142.499364 98.610927 142.499364 100.003635 Z M 142.499364 100.003635 " stroke="#000000" stroke-width="23" stroke-opacity="1" stroke-miterlimit="4"/></g><g clip-path="url(#0018d467c5)"><path fill="#ffde59" d="M 61.507812 140.417969 L 67.054688 145.566406 L 72.601562 150.71875 L 77.386719 145.566406 L 95.882812 125.648438 L 114.382812 145.566406 L 119.164062 150.71875 L 130.261719 140.417969 L 95.882812 103.394531 Z M 61.507812 140.417969 " fill-opacity="1" fill-rule="nonzero"/></g><g transform="matrix(1, 0, 0, 1, 74, 74)"><g clip-path="url(#a37ff7b30b)"><g clip-path="url(#a54c64a7b0)"><g><g clip-path="url(#cff486f15f)"><g clip-path="url(#9e3ed51bc2)"><g mask="url(#159b0fb05b)"><g><g clip-path="url(#5fdc594605)"><g clip-path="url(#dd80f4d415)"><path fill="url(#58c0ec268f)" d="M 0.96875 1.5 L 0.96875 301 L 279.398438 301 L 279.398438 1.5 Z M 0.96875 1.5 " fill-rule="nonzero"/></g></g></g></g></g></g></g></g></g></g></g></g></svg>